<svg width="187" height="60" viewBox="0 0 187 60" fill="none" xmlns="http://www.w3.org/2000/svg">
<path d="M59.2969 42.8749C59.2793 42.7949 59.2617 42.7456 59.2617 42.7456C58.2988 40.1902 56.2731 37.407 53.4488 34.6423C56.5197 38.0905 57.8878 41.3848 56.8661 43.8478C54.6173 49.2726 41.6411 48.5891 27.89 42.3146C14.1329 36.0401 4.80885 26.5575 7.05766 21.1327C8.07931 18.6635 11.3322 17.4628 15.865 17.4751C12.5945 17.235 9.70574 17.4443 7.41583 18.1155C7.40409 18.1155 7.40408 18.1155 7.40408 18.1155C3.9105 19.1746 2.20188 22.2472 1.83197 23.0046C1.77913 23.1216 1.74978 23.177 1.74978 23.177C1.72042 23.2447 1.68519 23.3125 1.65583 23.3925C-2.83004 34.2113 6.37069 48.8293 22.1828 56.0397C38.0125 63.2502 54.4705 60.3438 58.9564 49.5251C59.0092 49.4019 59.0562 49.2726 59.1032 49.1433C59.1501 49.0263 59.1971 48.9032 59.2323 48.7738C59.2617 48.6938 59.2793 48.6199 59.2969 48.5522C60.072 45.9229 59.4613 43.4599 59.2969 42.8749Z" fill="#1F1F1F"/>
<path d="M34.243 25.443C36.1689 27.2348 38.0243 29.1314 39.8445 31.1264C39.639 32.0131 38.952 37.1238 42.1931 40.6829C45.5399 44.3651 50.4309 45.3873 52.3333 44.1434C50.3017 44.0819 48.4757 43.2875 47.1252 42.4501C46.8962 42.3146 46.6731 42.1669 46.45 42.0191C45.5575 41.4156 44.9586 40.8615 44.7355 40.6583C44.7179 40.6398 44.7003 40.6213 44.6827 40.5967C44.6533 40.5659 44.6474 40.5597 44.6474 40.5597C43.8959 39.8393 43.2206 39.0265 42.6628 38.1275C41.8761 36.8714 41.3359 35.4859 41.0893 34.0574C41.606 35.4059 42.3047 36.6497 43.156 37.7519C44.0016 38.8603 44.9997 39.8147 46.086 40.6275C47.1781 41.4464 48.3641 42.1053 49.6148 42.5917C50.243 42.8134 50.883 42.9981 51.5348 43.0966C52.1571 43.1828 52.8617 43.1952 53.2845 42.9304C53.3138 42.8996 53.3491 42.8688 53.3784 42.8442C54.4529 40.4551 53.3256 36.2433 50.2371 32.8505C47.0371 29.3407 42.199 29.5562 41.2771 29.7163C41.1069 29.3777 40.9425 29.039 40.7663 28.7065C39.7271 26.7669 38.5116 24.9319 37.1729 23.1894C37.0731 23.0601 36.9792 22.9246 36.8794 22.8014C33.9612 19.0885 30.4148 15.8865 26.4691 13.3435C22.5116 10.8127 18.1197 9.02706 13.5986 8.08496C9.07165 7.20443 4.42725 7.12437 9.15527e-05 8.10957C4.4155 9.15019 8.61953 10.2586 12.6357 11.7671C16.646 13.3065 20.4507 15.1969 24.0559 17.4937C24.8838 18.0232 25.6999 18.5774 26.5102 19.15C29.1935 21.0466 31.7828 23.1401 34.243 25.443Z" fill="white"/>
<path d="M45.2639 14.1561C45.6397 14.6611 46.0096 15.1537 46.3971 15.6278C46.6202 15.8864 46.7142 16.0465 46.8551 16.2312C46.9902 16.416 47.1428 16.5884 47.2368 16.7916C47.7182 17.5551 48.0118 18.4295 48.1351 19.4332C48.3935 21.4405 47.9648 23.7865 47.2602 26.2126C49.2213 24.6855 50.6892 22.3395 51.0415 19.4578C51.2118 18.0292 50.9828 16.4467 50.337 15.0736C50.2078 14.7103 50.0023 14.4025 49.8026 14.0823C49.6089 13.7744 49.3858 13.4172 49.2331 13.214C48.8867 12.7461 48.5402 12.2781 48.2173 11.8101C46.908 9.95672 45.6456 8.17718 45.2052 6.33608C44.9821 5.41861 44.9645 4.42726 45.2111 3.3497C45.4342 2.25981 45.9391 1.18225 46.4382 0C45.352 0.584965 44.3773 1.41623 43.5729 2.51843C42.7802 3.62062 42.2988 5.1169 42.3046 6.61934C42.2988 8.12794 42.7274 9.55031 43.2793 10.7818C43.843 12.038 44.5358 13.134 45.2639 14.1561Z" fill="white"/>
<path d="M86.174 54C84.5404 54 83.1071 53.5065 81.8742 52.5194C80.6722 51.5005 79.3314 49.6856 77.8519 47.0746L73.2286 38.9552H69.9922V53.5224H65.8312V27.7313C65.8312 26.1075 65.6154 24.9134 65.1839 24.1493C64.7524 23.3532 63.8894 22.9552 62.5948 22.9552H61.6702V22H73.6909C76.619 22 79.2697 22.605 81.6431 23.8149C84.0472 24.993 85.2493 27.2537 85.2493 30.597C85.2493 34.8318 82.7835 37.5383 77.8519 38.7164L82.7064 47.0746C83.8469 49.0488 84.864 50.4338 85.7578 51.2299C86.6825 51.994 87.7459 52.4398 88.948 52.5672V53.5224C88.6706 53.6498 88.2699 53.7612 87.7459 53.8567C87.2527 53.9522 86.7288 54 86.174 54ZM73.4597 37.2836C74.4152 37.2836 75.4478 37.0448 76.5574 36.5672C77.6978 36.0896 78.6533 35.3413 79.4239 34.3224C80.2252 33.3035 80.6259 32.0617 80.6259 30.597C80.6259 29.0368 80.2252 27.7473 79.4239 26.7284C78.6533 25.6776 77.6978 24.9134 76.5574 24.4358C75.4478 23.9264 74.4152 23.6716 73.4597 23.6716C72.3809 23.6716 71.2251 23.8308 69.9922 24.1493V36.806C71.2251 37.1244 72.3809 37.2836 73.4597 37.2836Z" fill="white"/>
<path d="M99.9003 54C97.8043 54 96.0321 53.4905 94.5834 52.4716C93.1348 51.4209 92.0406 50.0199 91.3008 48.2687C90.5611 46.4856 90.1912 44.4955 90.1912 42.2985C90.1912 40.1333 90.5611 38.1592 91.3008 36.3761C92.0406 34.593 93.1039 33.192 94.4909 32.1731C95.9088 31.1224 97.5578 30.597 99.4379 30.597C102.551 30.597 104.863 31.5045 106.373 33.3194C107.914 35.1025 108.685 37.6975 108.685 41.1045L108.592 43.0149H94.5834C94.5834 45.6896 95.1382 47.8706 96.2478 49.5582C97.3574 51.2458 98.8831 52.0896 100.825 52.0896C102.274 52.0896 103.491 51.7711 104.477 51.1343C105.495 50.4975 106.435 49.5423 107.298 48.2687L108.222 48.9851C107.205 50.7363 106.019 52.01 104.662 52.806C103.306 53.602 101.719 54 99.9003 54ZM104.292 41.1045C104.292 38.3025 103.892 36.1692 103.09 34.7045C102.289 33.2398 101.072 32.5075 99.4379 32.5075C98.5133 32.5075 97.6811 32.8896 96.9413 33.6537C96.2016 34.3861 95.616 35.405 95.1844 36.7104C94.7837 38.0159 94.5834 39.4806 94.5834 41.1045H104.292Z" fill="white"/>
<path d="M121.273 54C117.729 54 115.34 53.3632 114.107 52.0896C113.583 51.5483 113.259 50.9433 113.136 50.2746C113.013 49.5741 112.951 48.5075 112.951 47.0746H113.876C114.153 48.6667 114.816 49.9085 115.864 50.8C116.943 51.6597 118.438 52.0896 120.348 52.0896C122.044 52.0896 123.307 51.7871 124.14 51.1821C125.003 50.5771 125.434 49.7652 125.434 48.7463C125.434 47.8229 125.095 47.0269 124.417 46.3582C123.77 45.6896 122.722 45.0527 121.273 44.4478L118.499 43.2537C116.65 42.4896 115.263 41.598 114.338 40.5791C113.413 39.5602 112.951 38.3025 112.951 36.806C112.951 34.8637 113.66 33.3512 115.078 32.2687C116.496 31.1542 118.33 30.597 120.58 30.597C123.97 30.597 126.282 31.2338 127.515 32.5075C128.039 33.0488 128.362 33.6537 128.486 34.3224C128.609 34.991 128.671 36.0577 128.671 37.5224H127.746C127.499 35.9303 126.852 34.7045 125.804 33.8448C124.756 32.9532 123.323 32.5075 121.504 32.5075C120.056 32.5075 118.915 32.8259 118.083 33.4627C117.282 34.0677 116.881 34.8637 116.881 35.8507C116.881 37.5065 118.114 38.8597 120.58 39.9104L123.354 41.1045C125.45 41.996 126.975 42.9512 127.931 43.9701C128.886 44.9572 129.364 46.2308 129.364 47.791C129.364 49.7333 128.609 51.2617 127.099 52.3761C125.588 53.4587 123.646 54 121.273 54Z" fill="white"/>
<path d="M141.075 54C139.348 54 137.992 53.4905 137.006 52.4716C136.02 51.4527 135.526 49.8925 135.526 47.791V32.9851H132.29V31.0746H135.526V26.7761L137.838 23.9104H139.687V31.0746H145.236V32.9851H139.687V47.791C139.687 50.6567 140.766 52.0896 142.924 52.0896C143.664 52.0896 144.28 52.01 144.773 51.8507C145.297 51.6915 145.837 51.4527 146.391 51.1343L146.854 52.0896C146.145 52.6308 145.359 53.0925 144.496 53.4746C143.633 53.8249 142.492 54 141.075 54Z" fill="white"/>
<path d="M155.448 54C154.462 54 153.46 53.793 152.443 53.3791C151.426 52.9333 150.547 52.2169 149.808 51.2299C149.099 50.2428 148.744 48.9373 148.744 47.3134C148.744 44.8935 149.823 43.1741 151.981 42.1552C154.169 41.1363 157.02 40.6269 160.534 40.6269H161.921C161.921 37.5065 161.505 35.3731 160.672 34.2269C159.84 33.0806 158.638 32.5075 157.066 32.5075C155.679 32.5075 154.57 32.81 153.737 33.4149C152.905 34.0199 152.32 35.0706 151.981 36.5672H149.9C149.9 35.4846 149.962 34.6408 150.085 34.0358C150.208 33.399 150.532 32.8099 151.056 32.2687C151.611 31.6955 152.52 31.2816 153.784 31.0269C155.078 30.7403 156.481 30.597 157.991 30.597C160.488 30.597 162.46 31.2975 163.909 32.6985C165.357 34.0677 166.082 36.7104 166.082 40.6269V53.5224H163.77L162.152 51.3731H161.921C161.366 52.1055 160.549 52.7264 159.47 53.2358C158.392 53.7453 157.051 54 155.448 54ZM157.529 51.8507C158.546 51.8507 159.393 51.596 160.071 51.0866C160.75 50.5771 161.366 49.8766 161.921 48.9851V42.5373H160.534C158.253 42.5373 156.45 42.9831 155.124 43.8746C153.799 44.7343 153.136 45.8806 153.136 47.3134C153.136 48.7781 153.552 49.9085 154.385 50.7045C155.248 51.4687 156.296 51.8507 157.529 51.8507Z" fill="white"/>
<path d="M172.899 36.806C172.899 35.1821 172.683 33.9881 172.251 33.2239C171.82 32.4279 170.957 32.0299 169.662 32.0299H169.2V31.0746H172.899C174.07 31.0746 174.948 31.2498 175.534 31.6C176.15 31.9184 176.582 32.4597 176.829 33.2239H177.06C177.615 32.4915 178.354 31.8706 179.279 31.3612C180.234 30.8517 181.344 30.597 182.608 30.597C183.841 30.597 184.765 30.8358 185.382 31.3134C185.906 31.7274 186.445 32.4438 187 33.4627L185.151 34.8955C184.812 34.4179 184.318 34.0677 183.671 33.8448C183.024 33.59 182.284 33.4627 181.452 33.4627C180.527 33.4627 179.68 33.6856 178.909 34.1313C178.139 34.5453 177.522 35.1184 177.06 35.8507V53.5224H172.899V36.806Z" fill="white"/>
</svg>
